<svg xmlns="http://www.w3.org/2000/svg" xmlns:xlink="http://www.w3.org/1999/xlink"
    viewBox="0,0,256,256" width="90px" height="90px" fill-rule="nonzero">
    <g fill="#808080" fill-rule="nonzero" stroke="none" stroke-width="1" stroke-linecap="butt"
        stroke-linejoin="miter" stroke-miterlimit="10" stroke-dasharray="" stroke-dashoffset="0"
        font-family="none" font-weight="none" font-size="none" text-anchor="none"
        style="mix-blend-mode: normal">
        <g transform="scale(8.53333,8.53333)">
            <path
                d="M23,2h-16c-1.105,0 -2,0.895 -2,2v22c0,1.105 0.895,2 2,2h16c1.105,0 2,-0.895 2,-2v-22c0,-1.105 -0.895,-2 -2,-2zM10.75,12.222v-0.903c-0.188,-0.1 -0.724,-0.792 -0.78,-1.332c-0.147,-0.012 -0.379,-0.159 -0.448,-0.738c-0.036,-0.311 0.11,-0.486 0.198,-0.541c0,0 -0.22,-0.501 -0.22,-1c0,-1.48 0.733,-2.708 2.5,-2.708c0.954,0 1.25,0.677 1.25,0.677c0.853,0 1.25,0.935 1.25,2.031c0,0.547 -0.22,1 -0.22,1c0.088,0.055 0.234,0.23 0.198,0.541c-0.068,0.579 -0.3,0.726 -0.447,0.738c-0.056,0.54 -0.592,1.232 -0.78,1.332v0.903c0.374,1.217 2.2,0.621 2.75,2.778h-8.001c0.55,-2.157 2.376,-1.561 2.75,-2.778zM21,24h-12c-0.552,0 -1,-0.448 -1,-1c0,-0.552 0.448,-1 1,-1h12c0.552,0 1,0.448 1,1c0,0.552 -0.448,1 -1,1zM21,20h-12c-0.552,0 -1,-0.448 -1,-1c0,-0.552 0.448,-1 1,-1h12c0.552,0 1,0.448 1,1c0,0.552 -0.448,1 -1,1zM21,15h-2c-0.552,0 -1,-0.448 -1,-1c0,-0.552 0.448,-1 1,-1h2c0.552,0 1,0.448 1,1c0,0.552 -0.448,1 -1,1zM21,11h-2c-0.552,0 -1,-0.448 -1,-1c0,-0.552 0.448,-1 1,-1h2c0.552,0 1,0.448 1,1c0,0.552 -0.448,1 -1,1z"></path>
        </g>
    </g>
</svg>